<svg xmlns="http://www.w3.org/2000/svg" width="20" height="18" viewBox="0 0 20 18">
    <g fill="none" fill-rule="evenodd">
        <g fill="#FFF">
            <g>
                <g>
                    <path d="M5.705 1.555c-1.017 0-2.023.464-2.996 1.382-1.064 1.064-1.399 2.49-.98 4.222.816 3.387 4.35 7.08 7.952 8.36 3.214-1.333 7.203-5.17 7.977-8.768.335-1.556.006-2.844-.979-3.83-3.046-2.945-6.287.246-6.424.384-.154.155-.365.24-.586.23-.219-.01-.424-.11-.565-.279-.01-.014-1.369-1.593-3.212-1.696-.063-.004-.125-.005-.187-.005m3.997 15.57c-.08 0-.16-.013-.239-.038-4.22-1.36-8.28-5.562-9.246-9.563-.546-2.263-.059-4.235 1.41-5.702C3 .523 4.467-.078 5.994.008c1.694.1 3.024 1.046 3.735 1.68 1.765-1.418 5.07-2.746 8.038.125 1.374 1.372 1.857 3.19 1.411 5.265-.914 4.245-5.496 8.597-9.203 9.996-.088.033-.18.051-.274.051" transform="translate(-150 -181) translate(12 169) translate(138 12)"/>
                </g>
            </g>
        </g>
    </g>
</svg>
